<svg xmlns="http://www.w3.org/2000/svg" xmlns:xlink="http://www.w3.org/1999/xlink" version="1.1" id="Layer_1" x="0px" y="0px" width="100px" height="100px" viewBox="0 0 100 100" style="enable-background:new 0 0 100 100;" xml:space="preserve">
<path d="M66.207,20.106C58.711,20.04,56.398,24.561,50,24.729c-6.399-0.168-8.712-4.688-16.207-4.623  C9.215,20.322-6.916,79.895,11.458,79.895C30.738,79.975,29.085,60.896,50,60.711c20.914,0.186,19.261,19.264,38.541,19.184  C106.916,79.895,90.785,20.322,66.207,20.106z M37.01,46.032h-5.396v5.396h-5.396v-5.396h-5.396v-5.396h5.396V35.24h5.396v5.396  h5.396V46.032z M64.817,50.665c-2.11,0.744-4.419-0.364-5.162-2.473c-0.743-2.107,0.362-4.419,2.472-5.162  c2.11-0.744,4.42,0.364,5.163,2.472C68.032,47.61,66.927,49.92,64.817,50.665z M76.644,43.636c-2.11,0.744-4.419-0.364-5.162-2.472  s0.363-4.418,2.472-5.162s4.419,0.364,5.162,2.472C79.858,40.582,78.753,42.893,76.644,43.636z"/>
</svg>