<?xml version="1.0" encoding="utf-8"?>
<!-- Generator: Adobe Illustrator 16.0.0, SVG Export Plug-In . SVG Version: 6.00 Build 0)  -->
<!DOCTYPE svg PUBLIC "-//W3C//DTD SVG 1.1//EN" "http://www.w3.org/Graphics/SVG/1.1/DTD/svg11.dtd">
<svg version="1.1" id="shockIcon" xmlns="http://www.w3.org/2000/svg" xmlns:xlink="http://www.w3.org/1999/xlink" x="0px" y="0px"
	 width="100px" height="100px" viewBox="0 0 100 100" enable-background="new 0 0 100 100" xml:space="preserve">
<path id="noIconFill" display="none" d="M49.999,0C22.388,0,0,22.388,0,50c0,27.613,22.387,50,49.998,50
	C77.613,100,100,77.613,100,50C100,22.388,77.613,0,49.999,0z M64.674,30.645c4.004,0,7.248,3.244,7.248,7.246
	c0,4.003-3.244,7.248-7.248,7.248c-4.002,0-7.246-3.245-7.246-7.248C57.428,33.889,60.672,30.645,64.674,30.645z M35.327,30.645
	c4.003,0,7.247,3.244,7.247,7.246c0,4.003-3.244,7.248-7.247,7.248c-4.002,0-7.247-3.245-7.247-7.248
	C28.08,33.889,31.324,30.645,35.327,30.645z M68.662,70.895H31.339c-2.701,0-4.892-2.191-4.892-4.891
	c0-2.703,2.189-4.893,4.892-4.893h37.323c2.701,0,4.891,2.189,4.891,4.893C73.553,68.703,71.363,70.895,68.662,70.895z"/>
<path id="shockIconFill" d="M50.071,100C77.686,99.962,100.038,77.543,100,49.932C99.962,22.317,77.541-0.038,49.933,0
	C22.317,0.036-0.039,22.454,0,50.067C0.037,77.683,22.454,100.038,50.071,100z M67.046,25.909c4.506-0.007,8.171,3.645,8.181,8.157
	c0.008,4.509-3.646,8.171-8.156,8.179c-4.508,0.008-8.176-3.645-8.179-8.157C58.887,29.576,62.535,25.915,67.046,25.909z
	 M21.299,80.881c-0.017-11.808,12.826-21.399,28.683-21.42c15.858-0.022,28.728,9.532,28.743,21.34L21.299,80.881z M32.889,25.954
	c4.51-0.007,8.171,3.646,8.178,8.158c0.004,4.509-3.646,8.172-8.157,8.178c-4.512,0.006-8.171-3.646-8.179-8.157
	C24.725,29.622,28.379,25.96,32.889,25.954z"/>
</svg>
