<?xml version="1.0" encoding="utf-8"?>
<!-- Generator: Adobe Illustrator 16.0.0, SVG Export Plug-In . SVG Version: 6.00 Build 0)  -->
<!DOCTYPE svg PUBLIC "-//W3C//DTD SVG 1.1//EN" "http://www.w3.org/Graphics/SVG/1.1/DTD/svg11.dtd">
<svg version="1.1" xmlns="http://www.w3.org/2000/svg" xmlns:xlink="http://www.w3.org/1999/xlink" x="0px" y="0px" width="100px"
	 height="100px" viewBox="0 0 100 100" enable-background="new 0 0 100 100" xml:space="preserve">
<g id="logoutIcon" display="none">
	<path id="logoutIconFill" display="inline" d="M49.933,0C22.317,0.036-0.039,22.454,0,50.067
		C0.037,77.684,22.454,100.038,50.071,100C77.686,99.962,100.038,77.543,100,49.932C99.962,22.317,77.541-0.038,49.933,0z
		 M55.023,71.579H25V28.421h30.023v6.88H31.88v29.398h23.144V71.579z M61.279,71.549V58.444H38.136V41.556h23.144v-13L85,50.053
		L61.279,71.549z"/>
</g>
<g id="loginIcon" display="none">
	<path id="loginIconFill" display="inline" d="M49.933,0C22.317,0.036-0.039,22.454,0,50.067
		C0.037,77.684,22.454,100.038,50.071,100C77.686,99.962,100.038,77.543,100,49.932C99.962,22.317,77.541-0.038,49.933,0z
		 M53.304,31.474H79.08v37.052H53.304V62.62h19.869V37.381H53.304V31.474z M38.949,68.5V57.249H19.08V42.751h19.869V31.59
		l20.364,18.455L38.949,68.5z"/>
</g>
<g id="downloadIcon" display="none">
	<path id="downloadIconFill" display="inline" d="M50,0C22.386,0,0,22.386,0,50s22.386,50,50,50c27.613,0,50-22.386,50-50
		S77.613,0,50,0z M50,58.5L37.5,39.75h6.25V21h12.5v18.75h6.25L50,58.5z M75,74H25V55.25h6.25v12.5h37.5v-12.5H75V74z"/>
</g>
<g id="closeIcon" display="none">
	<path id="closeIconFill" display="inline" d="M85.355,85.355c-19.526,19.525-51.185,19.526-70.711,0s-19.526-51.185,0-70.711
		c19.525-19.525,51.185-19.526,70.711,0S104.881,65.83,85.355,85.355z M35.935,72.107l13.59-13.59l13.656,13.656l8.718-8.717
		L58.242,49.801l13.589-13.589l-8.65-8.651L49.591,41.15l-13.59-13.59l-8.717,8.717l13.59,13.59l-13.59,13.59L35.935,72.107z"/>
</g>
<g id="signupIcon" display="none">
	<path id="signupIconFill" display="inline" d="M85.355,14.645c-19.526-19.526-51.186-19.525-70.711,0
		c-19.526,19.526-19.526,51.185,0,70.711s51.185,19.525,70.711,0C104.881,65.83,104.882,34.171,85.355,14.645z M50.001,18
		c7.268,0,13.158,5.89,13.158,13.158c0,7.277-5.89,13.169-13.158,13.169c-7.273,0-13.163-5.893-13.163-13.169
		C36.838,23.89,42.728,18,50.001,18z M25.469,72.179c0-11.643,10.979-20.431,24.531-20.431c13.557,0,24.531,8.788,24.531,20.431
		C74.531,79.94,25.469,79.94,25.469,72.179z"/>
</g>
<g id="talkIcon" display="none">
	<path id="talkIconFill" display="inline" d="M85.355,14.645c-19.526-19.526-51.186-19.525-70.711,0
		c-19.526,19.526-19.526,51.185,0,70.711s51.185,19.525,70.711,0C104.881,65.83,104.882,34.171,85.355,14.645z M75,54.688
		c0,4.873-3.951,8.824-8.823,8.824h-2.679l-2.565,12.062L52.96,63.513H33.824c-4.873,0-8.824-3.951-8.824-8.824V39.247
		c0-4.873,3.951-8.823,8.824-8.823h32.353c4.872,0,8.823,3.951,8.823,8.823V54.688z"/>
</g>
<g id="ideaIcon" display="none">
	<path id="ideaIconFill" display="inline" d="M85.355,14.645c-19.526-19.526-51.186-19.525-70.711,0
		c-19.526,19.526-19.526,51.185,0,70.711s51.185,19.525,70.711,0C104.881,65.83,104.882,34.171,85.355,14.645z M48.647,16.721
		c0-0.746,0.605-1.352,1.353-1.352c0.746,0,1.352,0.605,1.352,1.352v10.081c0,0.747-0.606,1.352-1.352,1.352
		c-0.748,0-1.353-0.605-1.353-1.352V16.721z M26.432,50.812h-10.08c-0.748,0-1.353-0.606-1.353-1.353
		c0-0.747,0.605-1.353,1.353-1.353h10.079c0.747,0,1.352,0.605,1.352,1.353C27.784,50.205,27.178,50.812,26.432,50.812z
		 M24.75,28.122c-0.529-0.529-0.529-1.384,0-1.914c0.528-0.528,1.384-0.528,1.912,0l7.128,7.127c0.529,0.53,0.528,1.383,0,1.914
		c-0.529,0.527-1.385,0.527-1.914,0L24.75,28.122z M49.952,82.631c-3.229,0-4.461-2.149-4.461-2.897
		c0-0.746,0.605-1.352,1.352-1.352h6.314c0.746,0,1.351,0.606,1.351,1.352C54.51,80.481,53.181,82.631,49.952,82.631z
		 M55.039,76.465H44.962c-0.749,0-1.354-0.603-1.354-1.352c0-0.748,0.606-1.352,1.354-1.352h10.077c0.749,0,1.354,0.604,1.354,1.352
		C56.394,75.862,55.788,76.465,55.039,76.465z M60.514,62.986c-0.35,0.26-0.71,0.504-1.074,0.737l0.008,0.005
		c-1.345,0.964-2.22,2.538-2.22,4.317l-0.013-0.003v0.8c0,1.292-0.962,2.349-2.142,2.349H44.927c-1.179,0-2.143-1.057-2.143-2.349
		v-1.146c-0.109-1.622-0.918-3.052-2.16-3.953c-4.962-3.123-8.27-8.634-8.27-14.931c0-9.746,7.9-17.646,17.646-17.646
		c9.746,0,17.644,7.899,17.644,17.647C67.645,54.619,64.842,59.771,60.514,62.986z M65.817,34.646c-0.527-0.529-0.527-1.385,0-1.913
		l7.128-7.126c0.527-0.528,1.385-0.528,1.912,0c0.529,0.527,0.529,1.383,0,1.911l-7.126,7.128
		C67.204,35.174,66.346,35.174,65.817,34.646z M83.648,50.812H73.566c-0.742,0-1.351-0.606-1.351-1.353
		c0-0.747,0.608-1.353,1.351-1.353h10.082c0.749,0,1.352,0.605,1.352,1.353C85,50.205,84.397,50.812,83.648,50.812z"/>
</g>
<g id="deployIcon" display="none">
	<path id="deployIconFill" display="inline" d="M85.355,14.645c-19.526-19.526-51.186-19.525-70.711,0
		c-19.526,19.526-19.526,51.185,0,70.711s51.185,19.525,70.711,0C104.881,65.83,104.882,34.171,85.355,14.645z M44.56,62.877
		l-7.349,7.339L17,50.002l20.21-20.219l7.35,7.359L31.7,50.002L44.56,62.877z M62.791,70.207l-7.348-7.351l12.865-12.859
		l-12.865-12.86l7.348-7.354L83,49.982L62.791,70.207z"/>
</g>
<g id="syncIcon" display="none">
	<path id="syncIconFill" display="inline" d="M85.355,14.645c-19.526-19.526-51.186-19.525-70.711,0
		c-19.526,19.526-19.526,51.185,0,70.711s51.185,19.525,70.711,0C104.881,65.83,104.882,34.171,85.355,14.645z M49.868,80.002
		c-9.287,0-17.563-4.201-23.087-10.785L20,76.121V53.957l22.266-0.01l-7.057,6.741c3.313,4.476,8.625,7.394,14.623,7.394
		c10.021,0,18.163-8.114,18.163-18.083H80C80,66.569,66.525,80.002,49.868,80.002z M80,46.042l-22.269,0.01l7.056-6.743
		c-3.311-4.474-8.625-7.393-14.621-7.393c-10.023,0-18.164,8.113-18.164,18.085H20c0-16.572,13.476-30.001,30.13-30.001
		c9.287,0,17.562,4.199,23.085,10.782L80,23.876V46.042z"/>
</g>
<g id="moneyIcon" display="none">
	<path id="moneyIconFill" display="inline" d="M85.355,14.645c-19.526-19.526-51.186-19.525-70.711,0
		c-19.526,19.526-19.526,51.185,0,70.711s51.185,19.525,70.711,0C104.881,65.83,104.882,34.171,85.355,14.645z M43.688,71.844
		L20.001,60.981l2.581-1.598l21.106,9.497l33.724-21.357L80,48.879L43.688,71.844z M43.688,66.909L20.001,56.047l2.581-1.598
		l21.106,9.497l33.724-21.358L80,43.942L43.688,66.909z M43.688,61.975L20,51.112l36.313-22.956L80,39.008L43.688,61.975z"/>
	<path id="moneyIconFill_1_" display="inline" d="M41.013,45.363c0,2.45,4.076,4.889,9.105,4.889c5.028,0,9.103-2.44,9.103-4.889
		s-4.074-4.887-9.103-4.887C45.089,40.476,41.013,42.914,41.013,45.363z"/>
</g>
<g id="converseIcon" display="none">
	<path id="converseIconFill" display="inline" d="M85.355,14.645c-19.526-19.526-51.186-19.525-70.711,0
		c-19.526,19.526-19.526,51.185,0,70.711s51.185,19.525,70.711,0C104.881,65.83,104.882,34.171,85.355,14.645z M38.539,67.443
		c-0.351,0.405-4.577-1.292-7.348-3.938c-2.415-2.307-3.539-4.24-3.974-5.125h-5.271c-1.075,0-1.946-0.871-1.946-1.946V35.192
		c0-1.075,0.872-1.946,1.946-1.946h35.676c1.074,0,1.945,0.872,1.946,1.946v21.242c0,1.076-0.87,1.946-1.945,1.946H33.992
		c0.013,0.68,0.207,2.259,1.505,4.371C37.191,65.511,38.963,66.956,38.539,67.443z M80,65.354c0,1.075-0.871,1.946-1.946,1.946
		h-6.04c-0.538,0.728-1.532,1.726-3.383,3.477c-3.14,2.973-7.522,4.356-7.749,3.889c-0.238-0.488,1.566-1.884,3.262-4.644
		c0.649-1.056,1.021-1.978,1.233-2.723H46.919c-1.075,0-1.946-0.87-1.946-1.945V60.07h14.009c1.309,0,2.369-1.061,2.369-2.37V43.137
		h16.702c1.075,0,1.946,0.871,1.946,1.946V65.354z"/>
</g>
<g id="collaborationIcon" display="none">
	<path id="collaborationIconFill" display="inline" d="M85.355,14.645c-19.526-19.526-51.186-19.525-70.711,0
		c-19.526,19.526-19.526,51.185,0,70.711s51.185,19.525,70.711,0C104.881,65.83,104.882,34.171,85.355,14.645z M33,35
		c3.635,0,6.58,2.945,6.58,6.579c0,3.638-2.945,6.584-6.58,6.584c-3.637,0-6.581-2.946-6.581-6.584C26.419,37.945,29.363,35,33,35z
		 M20.734,62.089c0-5.821,5.489-10.215,12.266-10.215c6.778,0,12.266,4.394,12.266,10.215
		C45.266,65.971,20.734,65.971,20.734,62.089z M67,35c3.635,0,6.58,2.945,6.58,6.579c0,3.638-2.945,6.584-6.58,6.584
		c-3.637,0-6.581-2.946-6.581-6.584C60.419,37.945,63.363,35,67,35z M54.734,62.089c0-5.821,5.489-10.215,12.266-10.215
		c6.778,0,12.266,4.394,12.266,10.215C79.266,65.971,54.734,65.971,54.734,62.089z"/>
</g>
<g id="createIcon">
</g>
</svg>
