<?xml version="1.0" encoding="utf-8"?>
<!-- Generator: Adobe Illustrator 16.0.0, SVG Export Plug-In . SVG Version: 6.00 Build 0)  -->
<!DOCTYPE svg PUBLIC "-//W3C//DTD SVG 1.1//EN" "http://www.w3.org/Graphics/SVG/1.1/DTD/svg11.dtd">
<svg version="1.1" id="noPreviewIcon" xmlns="http://www.w3.org/2000/svg" xmlns:xlink="http://www.w3.org/1999/xlink" x="0px"
	 y="0px" width="100px" height="100px" viewBox="0 0 100 100" enable-background="new 0 0 100 100" xml:space="preserve">
<path id="topLeftDot" d="M26.329,16.276c3.424,3.425,3.419,8.959,0,12.382c-3.418,3.423-8.965,3.423-12.384,0.002
	c-3.421-3.421-3.421-8.967-0.002-12.388C17.364,12.851,22.911,12.858,26.329,16.276z"/>
<path id="leftDot" d="M8.762,41.312c4.842,0,8.753,3.917,8.756,8.753c0,4.843-3.921,8.763-8.756,8.758
	C3.92,58.822,0,54.901,0,50.064C0,45.229,3.925,41.312,8.762,41.312z"/>
<circle id="bottomLeftDot" cx="20.231" cy="77.624" r="8.755"/>
<circle id="bottomDot" cx="47.829" cy="89.002" r="8.756"/>
<circle id="bottomRightDot" cx="75.39" cy="77.533" r="8.755"/>
<path id="rightDot" d="M86.771,63.16c-7.316,0-13.232-5.915-13.232-13.219c0-7.31,5.921-13.232,13.232-13.228
	C94.075,36.711,100,42.633,100,49.941C100,57.244,94.075,63.16,86.771,63.16z"/>
<circle id="topRightDot" cx="75.297" cy="22.376" r="8.756"/>
<circle id="topDot" cx="47.7" cy="10.998" r="8.756"/>
</svg>
