<?xml version="1.0" encoding="utf-8"?>
<!-- Generator: Adobe Illustrator 16.0.0, SVG Export Plug-In . SVG Version: 6.00 Build 0)  -->
<!DOCTYPE svg PUBLIC "-//W3C//DTD SVG 1.1//EN" "http://www.w3.org/Graphics/SVG/1.1/DTD/svg11.dtd">
<svg version="1.1" id="reloadIcon" xmlns="http://www.w3.org/2000/svg" xmlns:xlink="http://www.w3.org/1999/xlink" x="0px" y="0px"
	 width="100px" height="100px" viewBox="0 0 100 100" enable-background="new 0 0 100 100" xml:space="preserve">
<path id="reloadIconBorder" d="M50,0C22.386,0,0,22.385,0,49.999C0,77.614,22.386,100,50,100c27.613,0,50-22.386,50-50.001
	C99.999,22.385,77.613,0,50,0z M50,97.382c-26.169,0-47.383-21.214-47.383-47.384C2.617,23.83,23.832,2.616,50,2.616
	c26.169,0,47.383,21.214,47.383,47.382C97.383,76.169,76.169,97.382,50,97.382z"/>
<path id="reloadIconFill" d="M89.109,42.971C85.227,21.369,64.569,7.008,42.968,10.89c-21.6,3.882-35.962,24.539-32.079,46.138
	c3.883,21.602,24.54,35.963,46.139,32.08C78.63,85.229,92.993,64.571,89.109,42.971z M34.573,59.228l-5.584,3.651
	c-9.873-16.858,2.633-28.788,2.633-28.788c6.677-7.427,15.831-7.506,19.812-7.123l1.554-7.318l8.233,12.669l-12.671,8.233
	l1.501-7.069c-7.576-0.693-13.002,4.629-13.002,4.629C26.97,48.939,34.573,59.228,34.573,59.228z M68.369,65.918
	c-6.68,7.426-15.832,7.498-19.813,7.112L47,80.35l-8.231-12.672l12.674-8.229l-1.504,7.075c7.575,0.693,13.004-4.627,13.004-4.627
	c10.088-10.826,2.486-21.117,2.486-21.117l5.588-3.644C80.882,53.992,68.369,65.918,68.369,65.918z"/>
</svg>
