<svg class="cinderIcon" viewBox="0 0 100 100">
	<path class="outerRung" d="M330,181.979c-0.772,2.004-8.724,22.525-20.328,48.004c-0.023-0.042-0.047-0.083-0.069-0.126 c-4.95,10.859-11.235,19.877-18.162,27.283c6.052,14.508,9.398,30.426,9.398,47.126c0,67.659-54.849,122.508-122.508,122.508 c-67.658,0-122.507-54.849-122.507-122.508c0-67.658,54.849-122.507,122.507-122.507c13.89,0,27.236,2.315,39.683,6.574 c0.051-20.984,0.311-37.074,0.311-37.074l0.18-0.057C217.997,99.616,250.637,5.113,252.416,0 c-1.158,3.246-14.71,38.886-66.416,84.259c-43.844,38.475-78.141,47.006-121.163,85.828c-30.396,27.428-45.787,51.819-51.688,67.956 C3.433,259.015,0,282.376,0,307.009c0,90.713,73.537,164.25,164.25,164.25s164.25-73.537,164.25-164.25 c0-14.596-1.904-28.748-5.478-42.219C318.747,212.054,328.786,184.311,330,181.979z"></path>
	<path class="innerRung" d="M278.318,299.063c-2.989,46.729-41.829,83.706-89.312,83.706 c-49.433,0-89.506-40.073-89.506-89.505c0-47.479,36.97-86.316,83.691-89.313c-2.047-0.123-4.107-0.193-6.186-0.193 c-56.06,0-101.506,45.445-101.506,101.506s45.446,101.506,101.506,101.506c56.061,0,101.507-45.445,101.507-101.506 C278.513,303.182,278.442,301.115,278.318,299.063z"></path>
</svg>