<svg class="emailIcon" viewBox="0 0 100 100">
	<path d="M99.804,44.773C96.92,17.357,72.258-2.607,44.812,0.277C31.52,1.673,19.568,8.157,11.157,18.536  C2.745,28.915-1.117,41.944,0.28,55.226C2.978,80.875,24.743,100,50.007,100c1.739,0,3.497-0.091,5.266-0.276  c6.831-0.719,13.309-2.773,19.25-6.107c3.374-1.893,4.573-6.158,2.679-9.529c-1.893-3.37-6.165-4.568-9.537-2.677  c-4.271,2.396-8.933,3.873-13.856,4.391c-19.75,2.081-37.517-12.298-39.594-32.038c-1.006-9.562,1.775-18.944,7.831-26.417  c6.056-7.473,14.662-12.142,24.231-13.146c19.766-2.079,37.518,12.298,39.594,32.038c0.518,4.919-0.646,8.802-3.193,10.651  c-1.588,1.152-3.607,1.364-5.401,0.567c-2.875-1.279-4.821-4.835-5.339-9.755c-0.001-0.006-0.002-0.013-0.003-0.019  C70.77,36.637,61.397,28.001,50.042,28.001c-12.14,0-22.016,9.869-22.016,21.999s9.876,21.999,22.016,21.999  c5.905,0,11.27-2.34,15.228-6.135c1.819,1.843,3.934,3.324,6.308,4.38c6.423,2.854,13.649,2.097,19.336-2.031  C97.618,63.345,100.858,54.802,99.804,44.773z M50.042,58c-4.415,0-8.006-3.589-8.006-8c0-4.411,3.591-8,8.006-8  c4.414,0,8.005,3.589,8.005,8C58.047,54.411,54.455,58,50.042,58z"/>
</svg>