<svg class="gameIcon" viewBox="0 0 100 100">
	<path class="gameIconFill" d="M89.375,31.463h-78.75c-2.979,0-5.396,2.418-5.396,5.396v26.281c0,2.978,2.417,5.396,5.396,5.396h78.75  c2.979,0,5.396-2.419,5.396-5.396V36.859C94.771,33.881,92.354,31.463,89.375,31.463z M33.01,52.698h-5.396v5.396h-5.396v-5.396  h-5.396v-5.396h5.396v-5.396h5.396v5.396h5.396V52.698z M65.641,55.396c-2.237,0-4.047-1.812-4.047-4.048  c0-2.234,1.81-4.047,4.047-4.047c2.237,0,4.047,1.812,4.047,4.047C69.688,53.584,67.877,55.396,65.641,55.396z M79.13,52.698  c-2.237,0-4.047-1.812-4.047-4.047s1.811-4.047,4.047-4.047c2.236,0,4.047,1.812,4.047,4.047S81.367,52.698,79.13,52.698z"/>
</svg>