<svg class="ideaIcon" viewBox="0 0 100 100">
	<path d="M56.023,82.83H43.977c-0.895,0-1.618-0.721-1.618-1.615s0.724-1.616,1.618-1.616h12.047c0.894,0,1.618,0.722,1.618,1.616   S56.917,82.83,56.023,82.83z"/>
	<path d="M90.222,52.165h-12.05c-0.89,0-1.615-0.724-1.615-1.616c0-0.894,0.726-1.618,1.615-1.618h12.05   c0.895,0,1.616,0.724,1.616,1.618C91.838,51.441,91.116,52.165,90.222,52.165z"/>
	<path d="M48.383,23.464v-12.05c0-0.892,0.724-1.616,1.617-1.616s1.617,0.724,1.617,1.616v12.05c0,0.892-0.724,1.616-1.617,1.616   S48.383,24.356,48.383,23.464z"/>
	<path d="M68.908,30.554l8.52-8.519c0.631-0.631,1.656-0.631,2.287,0c0.631,0.631,0.631,1.654,0,2.285l-8.519,8.521   c-0.631,0.631-1.657,0.631-2.288,0C68.277,32.208,68.277,31.185,68.908,30.554z"/>
	<path d="M28.335,33.561l-8.518-8.519c-0.632-0.633-0.632-1.655,0-2.288c0.631-0.631,1.654-0.631,2.285,0l8.521,8.519   c0.632,0.633,0.631,1.654,0,2.288C29.99,34.192,28.968,34.192,28.335,33.561z"/>
	<path d="M21.827,52.165H9.778c-0.893,0-1.617-0.724-1.617-1.616c0-0.894,0.724-1.618,1.617-1.618h12.048   c0.893,0,1.617,0.724,1.617,1.618C23.443,51.441,22.719,52.165,21.827,52.165z"/>
	<path d="M49.942,90.201c-3.859,0-5.333-2.568-5.333-3.463c0-0.892,0.723-1.615,1.617-1.615h7.548c0.892,0,1.615,0.724,1.615,1.615   C55.39,87.633,53.802,90.201,49.942,90.201z"/>
	<path d="M50,28.682c-11.65,0-21.093,9.443-21.093,21.094c0,7.527,3.954,14.115,9.885,17.846c1.485,1.078,2.452,2.787,2.582,4.728  v1.368c0,1.546,1.152,2.81,2.561,2.81h12.129c1.411,0,2.56-1.264,2.56-2.81v-0.955l0.016,0.004c0-2.126,1.046-4.01,2.653-5.162  l-0.01-0.005c0.436-0.279,0.867-0.571,1.285-0.881c5.174-3.844,8.523-10.003,8.523-16.942C71.092,38.125,61.651,28.682,50,28.682z"/>
</svg>