<svg class="installFireIcon" viewBox="0 0 100 100">
	<rect x="48" y="-14" width="4" height="51"/>
	<path d="M75.004,36H24.998C11.192,36,0.001,47.15,0.001,60.959s11.191,25.055,24.997,25.055c6.23,0,11.919-2.014,16.296-6.014   h17.408c4.381,4,10.066,5.992,16.297,5.992c13.809,0,25-11.188,25-24.995C99.999,47.19,88.808,36,75.004,36z M41,66H30v11H20V66H10   V56h10V45h10v11h11V66z M69.81,76.513c-2.874,0-5.204-2.327-5.204-5.196c0-2.872,2.33-5.199,5.204-5.199   c2.865,0,5.194,2.327,5.194,5.199C75.004,74.186,72.675,76.513,69.81,76.513z M80.198,55.719c-2.869,0-5.194-2.327-5.194-5.199   s2.325-5.199,5.194-5.199c2.875,0,5.202,2.327,5.202,5.199S83.073,55.719,80.198,55.719z"/>
</svg>