<svg class="smileIcon" viewBox="0 0 100 100">
	<path d="M49.994,0C22.385,0,0,22.384,0,50c0,27.61,22.385,50,49.994,50C77.611,100,100,77.61,100,50C100,22.384,77.611,0,49.994,0z    M49.994,86.38c-20.092,0-36.375-16.289-36.375-36.38s16.283-36.38,36.375-36.38S86.374,29.909,86.374,50   S70.086,86.38,49.994,86.38z"/>
	<path d="M40.774,45.18c0-4.422-3.58-8.002-8.001-8.002c-4.414,0-7.994,3.58-7.994,8.002c0,4.417,3.58,7.997,7.994,7.997   C37.194,53.177,40.774,49.597,40.774,45.18z"/>
	<path d="M67.219,37.178c-4.419,0-8,3.58-8,8.002c0,4.417,3.581,7.997,8,7.997c4.421,0,8.004-3.58,8.004-7.997   C75.223,40.758,71.64,37.178,67.219,37.178z"/>
	<path d="M50,78.014c9.941,0,18.282-6.79,20.682-15.982H29.316C31.719,71.224,40.052,78.014,50,78.014z"/>
</svg>