<svg class="uploadIcon" viewBox="0 0 100 100">
	<path d="M87.962,53.238c-0.119-10.771-8.874-19.723-19.672-19.723c-3.897,0-7.527,1.136-10.583,3.089   C54.243,24.922,43.434,16.398,30.63,16.398c-15.598,0-28.243,13.203-28.243,28.801C2.387,60.799,15.032,74,30.63,74   c8.305,0,30.602,0,37.66,0c4.29,0,16.173,0,19.368,0c5.571,0,10.089-4.816,10.089-10.388C97.747,58.143,93.393,53.4,87.962,53.238z    M42.608,45.092C42.273,45.837,41.532,46,40.716,46H37v10.178C37,57.324,34.97,58,33.825,58h-6.639C26.039,58,24,57.324,24,56.178   V46h-3.661c-0.816,0-1.558-0.163-1.893-0.908c-0.334-0.748-0.199-1.302,0.343-1.914l10.188-11.455c0.787-0.884,2.314-0.884,3.101,0   l10.188,11.455C42.808,43.79,42.943,44.344,42.608,45.092z"/>
</svg>