<svg class="videoIcon" viewBox="0 0 100 100">
	<path d="M216.4,117.875l-10.719,3.387l0.656-4.573c0.433-3.035-1.719-5.515-4.781-5.515h-7.785v-1.518  c14.871-4.454,25.712-18.237,25.712-34.558c0-19.923-16.151-36.07-36.075-36.07c-14.66,0-27.269,8.746-32.906,21.305  c-3.422-20.131-20.938-35.462-42.043-35.462c-23.56,0-42.658,19.097-42.658,42.658c0,17.633,10.7,32.769,25.965,39.267v4.378h-10.01  c-2.276,0-4.239,1.386-5.1,3.351l-34.71-8.495c-4.37-1.07-7.943,1.735-7.943,6.231v44.973c0,4.496,3.573,7.303,7.943,6.23  l34.24-8.383v8.597v9.271c0,3.063,2.507,5.57,5.57,5.57h110.161c3.061,0,5.924-2.482,6.355-5.514l5.081-35.49l5.146,1.641  c2.916,0.928,6.067-0.697,7.008-3.615l4.504-14.039C220.943,118.586,219.316,116.953,216.4,117.875z M108.768,80.588  c-7.172,0-12.985-5.811-12.985-12.982s5.813-12.98,12.985-12.98c7.168,0,12.982,5.809,12.982,12.98S115.936,80.588,108.768,80.588z   M168.33,111.174h-48.15c-1.014-0.551-1.704-1.621-1.704-2.855c0-1.791,1.45-3.246,3.245-3.246h45.068  c1.793,0,3.246,1.455,3.246,3.246C170.035,109.553,169.347,110.623,168.33,111.174z M185.172,86.153  c-5.121,0-9.272-4.152-9.272-9.276c0-5.119,4.151-9.271,9.272-9.271c5.123,0,9.271,4.152,9.271,9.271  C194.443,82,190.295,86.153,185.172,86.153z"/>
</svg>